<?xml version="1.0" encoding="utf-8"?>
<!-- Generator: Adobe Illustrator 22.0.1, SVG Export Plug-In . SVG Version: 6.00 Build 0)  -->
<svg version="1.1" id="Layer_1" xmlns="http://www.w3.org/2000/svg" xmlns:xlink="http://www.w3.org/1999/xlink" x="0px" y="0px"
	 viewBox="0 0 32 32" style="enable-background:new 0 0 32 32;" xml:space="preserve">
<style type="text/css">
	.st0{fill:#000C61;}
</style>
<path class="st0" d="M23.7,16.3c-0.6-1.5-1.5-2.7-3.8-3.6c-1.4-0.6-2.4-0.6-2.9-0.6c-0.3-2-0.5-3.3-0.5-3.3s2.7-2.6,3.3-4.6
	s0.3-2.9-0.5-3.5C18.5,0.2,17,0,16.3,1.7c-0.8,1.7-1,3.8-1,3.8s-4.4,4.6-5.9,6.4s-2.7,4.7-2,8.1c0.8,2.7,2.9,4.1,4.4,4.5
	c2.9,1.1,5.1,0.6,5.4,1c0.9,1.2,0.3,3.3-0.9,3.8c-1.4,0.4-2.1-0.4-2.2-1.3c-0.4-1.6-4.3-2.5-3.8,0.4c0.2,1.2,2.6,3.1,4.5,3
	c2.1,0,3.6-0.8,3.9-3.4c0.1-0.6,0-1.8-0.1-3.3c0.8-0.3,2.6-1.1,4-2.6C24.6,20.2,24.4,17.8,23.7,16.3z M11.3,20.2
	c-2.5-2.9,0-6.4,0-6.4s1.4-2.1,4.2-4.1l0.4,2.7c0,0-1.2,0.6-2.2,1.7s-1.6,2.7-0.7,4.7c0.9,1.9,3.9,2.2,3.9,2.2l0.2,1.8
	C17.2,22.8,13.8,23.1,11.3,20.2z M22,18.7c-0.4,2.4-3.5,3.7-3.5,3.7l-1.1-8.5C21.6,13.8,22.3,16.7,22,18.7z"/>
</svg>
