<?xml version="1.0" encoding="utf-8"?>
<!-- Generator: Adobe Illustrator 22.0.1, SVG Export Plug-In . SVG Version: 6.00 Build 0)  -->
<svg version="1.1" id="Layer_2" xmlns="http://www.w3.org/2000/svg" xmlns:xlink="http://www.w3.org/1999/xlink" x="0px" y="0px"
	 viewBox="0 0 32 32" style="enable-background:new 0 0 32 32;" xml:space="preserve">
<style type="text/css">
	.st0{fill:#FFFFFF;}
	.st1{fill-rule:evenodd;clip-rule:evenodd;fill:#231F20;}
</style>
<rect class="st0" width="31.9" height="32"/>
<g>
	<g>
		<path class="st1" d="M30.7,12.8c0-1.4-0.2-1.6-0.6-2.3c-2.7,0.4-7.1,4.6-9.8,5.8c-1.6,0.7-3.2,1.2-4.9,1.8h-1.7
			c1.5-2.5,4-3.4,6.3-5.1c0.8-0.6,1.6-1.1,2.4-2c0-1.2-0.2-1.5-0.4-2.3c-0.4-0.1-0.2,0-0.4-0.2c-1.4,0.2-1.8,1.1-2.8,1.6
			c-2,1.2-3.4,2.5-4.9,4.2c-0.2,0.4-0.4,0.8-0.6,1.2c-1.7,1.6-4.5,3.8-6.4,5.1c-0.9,0.6-1.5,1-2.8,1.4H3.5c2.2-4.9,6.1-10,10.2-12.9
			c-0.1-1.1-0.3-1.2-0.6-1.8h-0.9c-1.8,1.8-2.9,2.4-4.3,3.5c-2.4,1.9-4.5,4.7-6.6,6.9c-0.5,1.4,0,1.7,1.1,1.8
			c-0.5,1.1-1.3,2.9-0.4,4.2c0.2,0.5,0.4,0.5,0.6,0.9c4.1-0.1,5.9-3.3,8.7-4.9c0,0,2,1.3,3.4,0.9c2.3-0.7,6.9-1.8,8.1-3.5h0.2
			c-0.5,0.8-1.9,2.6-1.1,3.9c0.2,0.6,0.3,0.5,0.6,0.9c0.9-0.1,1.3-0.3,1.5-0.7C23.8,17.3,27.7,13.7,30.7,12.8z M2.6,18.8
			c0.1-0.2,0.1-0.3,0.2-0.5C2.8,18.3,3,18.5,2.6,18.8z"/>
	</g>
</g>
</svg>
